<?xml version="1.0" encoding="utf-8"?>
<!-- Generator: Adobe Illustrator 23.0.1, SVG Export Plug-In . SVG Version: 6.00 Build 0)  -->
<svg version="1.0" id="Layer_1" xmlns="http://www.w3.org/2000/svg" xmlns:xlink="http://www.w3.org/1999/xlink" x="0px" y="0px"
	 viewBox="0 0 173.3 52.5" style="enable-background:new 0 0 173.3 52.5;" xml:space="preserve">
<style type="text/css">
	.st0{fill:#8E1838;}
	.st1{fill:#1D2859;}
</style>
<g>
	<path class="st0" d="M23.9,13.2v16.4c0,7.2-4.6,12.1-12,12.1c-7,0-12-4.3-12-11.9h4.4c0,4.9,2.7,7.7,7.6,7.7c4.9,0,7.5-3.3,7.5-7.9
		V17.3v-4.2H23.9z"/>
	<path class="st0" d="M51.7,37.5c-2.9,2.8-6.6,4.2-10.5,4.2c-10.2,0-14.7-7-14.7-14.3c0-7.4,4.8-14.7,14.7-14.7
		c3.8,0,7.4,1.4,10.2,4.2l-3,2.9c-2-2-4.6-2.9-7.2-2.9c-7.1,0-10.4,5.2-10.3,10.4c0,5.1,3.1,10.2,10.3,10.2c2.6,0,5.5-1.1,7.4-3
		L51.7,37.5z"/>
	<path class="st0" d="M58.4,32.6v8.6h-4.5v-28c4.3,0,8.7,0,13,0c13.3,0,13.4,19.3,0,19.4H58.4z M58.4,28.4h8.5
		c7.4,0,7.4-11.2,0-11.2h-8.5V28.4z"/>
	<polygon class="st0" points="103.4,19.7 93.9,33 93,33 83.6,19.7 83.6,41.2 79.1,41.2 79.1,13.2 84.3,13.2 93.5,26.3 102.7,13.2 
		107.9,13.2 107.9,41.2 103.4,41.2 	"/>
	<path class="st0" d="M24.7,3.3c-0.5-0.5-1.2-0.7-1.8-0.7c-1.6,0-2.5,1.2-2.5,2.6c0,1.2,0.7,2.4,2.5,2.4c0.6,0,1.1-0.1,1.6-0.6V5.7
		h-1.9v-1h2.8v2.7c-0.7,0.7-1.5,1.2-2.6,1.2c-2.4,0-3.5-1.6-3.5-3.4c0-1.9,1.2-3.6,3.5-3.6c0.9,0,1.8,0.3,2.5,1L24.7,3.3z"/>
	<path class="st0" d="M46.1,8.5h-1.2l-2-2.3h-1.4v2.3h-1.1V1.8c1,0,2.1,0,3.1,0c1.5,0,2.3,1.1,2.3,2.2c0,1-0.5,1.9-1.8,2.1l2,2.2
		L46.1,8.5z M41.5,2.8v2.4h2c0.9,0,1.3-0.6,1.3-1.2c0-0.6-0.4-1.2-1.3-1.2H41.5z"/>
	<path class="st0" d="M66.3,1.8v3.9c0,2-1.3,2.9-2.9,2.9c-1.5,0-2.7-1-2.7-2.9V1.8h1.1v3.9c0,1.2,0.7,1.9,1.7,1.9
		c1.1,0.1,1.8-0.6,1.8-1.9V1.8H66.3z"/>
	<path class="st0" d="M82.5,6.4v2h-1.1V1.8c1,0,2.1,0,3.1,0c3.2,0,3.2,4.6,0,4.6H82.5z M82.5,5.4h2c1.8,0,1.8-2.7,0-2.7h-2V5.4z"/>
	<path class="st0" d="M107.9,5.2c0,1.8-1.1,3.4-3.4,3.4c-2.3,0-3.4-1.7-3.4-3.4c0-2,1.4-3.5,3.4-3.5C106.8,1.7,107.9,3.4,107.9,5.2
		 M104.5,7.6c1.7,0,2.4-1.2,2.4-2.4c0-1.2-0.7-2.5-2.3-2.5c-1.5,0-2.4,1.1-2.4,2.5C102.2,6.4,102.9,7.6,104.5,7.6"/>
	<path class="st1" d="M153.8,41.1c-0.3,0-0.6,0-0.9,0c-2-0.1-3.9-0.5-5.7-1.2c-0.5-0.2-0.4-0.9,0.2-0.9c0,0,0,0,0,0
		c4.4,0,8.5-1.7,11.6-4.9c3.1-3.2,4.7-7.3,4.6-11.7c0-0.8-0.1-1.7-0.3-2.5c-0.1-0.3,0.2-0.6,0.5-0.6h8.1c0.2,0,0.4,0.2,0.5,0.4
		c0.1,0.8,0.2,1.6,0.2,2.5c0.1,5-1.9,9.8-5.4,13.4C163.6,39.1,158.9,41.1,153.8,41.1"/>
	<path class="st1" d="M141.8,32.7c-0.2,0-0.4-0.2-0.5-0.4c-0.1-0.8-0.2-1.6-0.2-2.5c-0.1-5,1.9-9.8,5.4-13.4
		c3.6-3.6,8.3-5.6,13.3-5.6c0.3,0,0.6,0,0.9,0c2,0.1,3.9,0.5,5.7,1.2c0.5,0.2,0.4,0.9-0.2,0.9c0,0,0,0,0,0c-4.4,0-8.5,1.8-11.6,4.9
		c-3.1,3.2-4.7,7.3-4.6,11.7c0,0.8,0.1,1.7,0.3,2.5c0.1,0.3-0.2,0.6-0.5,0.6H141.8z"/>
	<path class="st1" d="M121.2,49.9h-2.4l-0.4,0.9h-1l2.1-4.7h1l2.1,4.7h-1L121.2,49.9z M119.9,47.1l-0.9,2h1.7L119.9,47.1z"/>
	<polygon class="st1" points="138.3,49.2 138.3,46.1 139.2,46.1 139.2,50.8 138.5,50.8 136,47.7 136,50.8 135.1,50.8 135.1,46.1 
		135.8,46.1 	"/>
	<path class="st1" d="M156.8,48.5c0,1.2-0.8,2.4-2.4,2.4c-1.6,0-2.4-1.2-2.4-2.4c0-1.5,1.1-2.5,2.4-2.5
		C156,46,156.8,47.2,156.8,48.5 M154.4,50.1c1.1,0,1.5-0.8,1.5-1.6c0-0.8-0.4-1.6-1.5-1.7c-1,0-1.6,0.7-1.6,1.7
		C152.9,49.2,153.3,50.1,154.4,50.1"/>
	<path class="st1" d="M172.4,47.2c-0.2-0.3-0.6-0.5-1.1-0.5c-0.7,0-1,0.3-1,0.6c0,0.4,0.5,0.5,1,0.6c1,0.1,1.9,0.4,1.9,1.5
		c0,1-0.9,1.5-2,1.5c-1,0-1.7-0.3-2-1.1l0.7-0.4c0.2,0.5,0.7,0.7,1.3,0.7c0.6,0,1.1-0.2,1.1-0.7c0-0.4-0.5-0.6-1.1-0.7
		c-1-0.1-1.8-0.4-1.8-1.4c0-1,0.9-1.4,1.8-1.4c0.7,0,1.5,0.2,1.8,0.9L172.4,47.2z"/>
	<path class="st1" d="M121.4,39.1c10.7,0,10.9-11.2,10.9-11.2s-3.1,2.2-7.6,2.2c-5.1,0-9.6-3.1-9.6-9.2c0-6.5,4.9-10.3,10.7-10.3
		c7.8,0,11.4,5.8,11.4,13.6c0,10.7-5.1,18.5-16.1,18.5c-2.2,0-3.6-0.4-3.6-0.4l0.2-3.6C117.9,38.9,119.4,39.1,121.4,39.1
		 M125.9,14.5c-3.6,0-6,2.2-6,6c0,4,2.2,5.8,6.3,5.8c3.6,0,6.5-2,6.5-2V23C132.6,17,129.5,14.5,125.9,14.5"/>
	<path class="st0" d="M5,48.4c0,1.2-0.7,2.3-2.3,2.3c-1.6,0-2.3-1.1-2.3-2.3c0-1.4,1-2.4,2.3-2.4C4.2,46.1,5,47.3,5,48.4 M2.7,50
		c1.1,0,1.5-0.8,1.5-1.5c0-0.8-0.4-1.6-1.5-1.6c-1,0-1.5,0.7-1.5,1.6C1.2,49.2,1.6,50,2.7,50"/>
	<path class="st0" d="M9.9,50.7h-1l-1.3-1.5H6.8v1.5H5.9v-4.5c0.7,0,1.4,0,2.1,0c1.1,0,1.6,0.7,1.6,1.5c0,0.6-0.3,1.2-1.1,1.4
		L9.9,50.7L9.9,50.7z M6.8,46.9v1.4h1.3c0.5,0,0.8-0.4,0.8-0.7c0-0.4-0.2-0.7-0.8-0.7H6.8z"/>
	<path class="st0" d="M14,47.3c-0.3-0.3-0.8-0.5-1.1-0.5c-1,0-1.6,0.7-1.6,1.7c0,0.7,0.4,1.5,1.6,1.5c0.4,0,0.7-0.1,1-0.4v-0.8h-1.2
		v-0.8h1.9V50c-0.4,0.5-1,0.8-1.8,0.8c-1.7,0-2.4-1.1-2.4-2.3c0-1.3,0.8-2.4,2.4-2.4c0.6,0,1.2,0.2,1.7,0.7L14,47.3z"/>
	<path class="st0" d="M19.5,46.2v2.6c0,1.3-0.8,2-2,2c-1.1,0-2-0.7-2-2v-2.6h0.8v2.6c0,0.8,0.5,1.2,1.2,1.2c0.7,0,1.1-0.5,1.1-1.2
		v-2.6H19.5z"/>
	<polygon class="st0" points="21.5,46.2 21.5,49.9 23.8,49.9 23.8,50.7 20.7,50.7 20.7,46.2 	"/>
	<polygon class="st0" points="27.7,50.7 27.7,48.8 25.5,48.8 25.5,50.7 24.6,50.7 24.6,46.2 25.5,46.2 25.5,48.1 27.7,48.1 
		27.7,46.2 28.5,46.2 28.5,50.7 	"/>
	<path class="st0" d="M34.1,48.4c0,1.2-0.7,2.3-2.3,2.3c-1.6,0-2.3-1.1-2.3-2.3c0-1.4,1-2.4,2.3-2.4C33.3,46.1,34.1,47.3,34.1,48.4
		 M31.8,50c1.1,0,1.5-0.8,1.5-1.5c0-0.8-0.4-1.6-1.5-1.6c-1,0-1.5,0.7-1.5,1.6C30.3,49.2,30.7,50,31.8,50"/>
	<path class="st0" d="M40.7,48.4c0,1.1-0.7,2.3-2.3,2.3h-1.8v-4.5h1.8C40,46.2,40.7,47.3,40.7,48.4 M37.5,49.8h0.9
		c1,0,1.4-0.7,1.4-1.5c0-0.7-0.4-1.4-1.4-1.4h-0.9V49.8z"/>
	<polygon class="st0" points="45,50.7 41.7,50.7 41.7,46.2 45,46.2 45,47 42.5,47 42.5,48 44.9,48 44.9,48.8 42.5,48.8 42.5,49.8 
		45,49.8 	"/>
	<path class="st0" d="M50.5,47.2c-0.2-0.3-0.6-0.5-1.1-0.5c-0.6,0-0.9,0.3-0.9,0.6c0,0.4,0.5,0.5,1,0.6c0.9,0.1,1.8,0.4,1.8,1.4
		c0,1-0.9,1.4-1.9,1.4c-0.9,0-1.6-0.3-2-1.1l0.7-0.4c0.2,0.5,0.7,0.7,1.3,0.7c0.5,0,1-0.2,1-0.7c0-0.4-0.4-0.6-1-0.7
		c-0.9-0.1-1.8-0.4-1.8-1.4c0-0.9,0.9-1.3,1.7-1.3c0.7,0,1.4,0.2,1.8,0.9L50.5,47.2z"/>
	<polygon class="st0" points="55.5,50.7 52.2,50.7 52.2,46.2 55.5,46.2 55.5,47 53,47 53,48 55.5,48 55.5,48.8 53,48.8 53,49.8 
		55.5,49.8 	"/>
	<path class="st0" d="M60.6,50.7h-1l-1.3-1.5h-0.9v1.5h-0.9v-4.5c0.7,0,1.4,0,2.1,0c1.1,0,1.6,0.7,1.6,1.5c0,0.6-0.3,1.2-1.1,1.4
		L60.6,50.7L60.6,50.7z M57.4,46.9v1.4h1.3c0.5,0,0.8-0.4,0.8-0.7c0-0.4-0.2-0.7-0.8-0.7H57.4z"/>
	<polygon class="st0" points="66.2,49.2 66.2,46.2 67,46.2 67,50.7 66.3,50.7 63.9,47.7 63.9,50.7 63.1,50.7 63.1,46.2 63.8,46.2 	
		"/>
	<path class="st0" d="M72.6,48.4c0,1.2-0.7,2.3-2.3,2.3S68,49.6,68,48.4c0-1.4,1-2.4,2.3-2.4C71.8,46.1,72.6,47.3,72.6,48.4
		 M70.3,50c1.1,0,1.5-0.8,1.5-1.5c0-0.8-0.4-1.6-1.5-1.6c-1,0-1.5,0.7-1.5,1.6C68.8,49.2,69.2,50,70.3,50"/>
	<path class="st0" d="M77.5,50.7h-1l-1.3-1.5h-0.9v1.5h-0.9v-4.5c0.7,0,1.4,0,2.1,0c1.1,0,1.6,0.7,1.6,1.5c0,0.6-0.3,1.2-1.1,1.4
		L77.5,50.7L77.5,50.7z M74.4,46.9v1.4h1.3c0.5,0,0.8-0.4,0.8-0.7c0-0.4-0.2-0.7-0.8-0.7H74.4z"/>
	<path class="st0" d="M82.4,48.4c0,1.1-0.7,2.3-2.3,2.3h-1.8v-4.5h1.8C81.7,46.2,82.4,47.3,82.4,48.4 M79.2,49.8h0.9
		c1,0,1.4-0.7,1.4-1.5c0-0.7-0.4-1.4-1.4-1.4h-0.9V49.8z"/>
	<polygon class="st0" points="86.7,50.7 83.3,50.7 83.3,46.2 86.7,46.2 86.7,47 84.2,47 84.2,48 86.6,48 86.6,48.8 84.2,48.8 
		84.2,49.8 86.7,49.8 	"/>
	<path class="st0" d="M90.4,47.2c-0.2-0.3-0.6-0.5-1.1-0.5c-0.6,0-0.9,0.3-0.9,0.6c0,0.4,0.5,0.5,1,0.6c0.9,0.1,1.8,0.4,1.8,1.4
		c0,1-0.9,1.4-1.9,1.4c-0.9,0-1.6-0.3-2-1.1l0.7-0.4c0.2,0.5,0.7,0.7,1.3,0.7c0.5,0,1-0.2,1-0.7c0-0.4-0.4-0.6-1-0.7
		c-0.9-0.1-1.8-0.4-1.8-1.4c0-0.9,0.9-1.3,1.7-1.3c0.7,0,1.4,0.2,1.8,0.9L90.4,47.2z"/>
	<polygon class="st0" points="93.1,46.9 91.7,46.9 91.7,46.2 95.4,46.2 95.4,46.9 94,46.9 94,50.7 93.1,50.7 	"/>
	<rect x="96.2" y="46.2" class="st0" width="0.8" height="4.5"/>
	<polygon class="st0" points="101.3,49.2 101.3,46.2 102.2,46.2 102.2,50.7 101.5,50.7 99.1,47.7 99.1,50.7 98.2,50.7 98.2,46.2 
		98.9,46.2 	"/>
	<path class="st0" d="M107.7,48.4c0,1.2-0.7,2.3-2.3,2.3c-1.6,0-2.3-1.1-2.3-2.3c0-1.4,1-2.4,2.3-2.4
		C107,46.1,107.8,47.3,107.7,48.4 M105.4,50c1.1,0,1.5-0.8,1.5-1.5c0-0.8-0.4-1.6-1.5-1.6c-1,0-1.5,0.7-1.5,1.6
		C104,49.2,104.4,50,105.4,50"/>
</g>
</svg>
